<svg width="26" height="26" viewBox="0 0 26 26" fill="none" xmlns="http://www.w3.org/2000/svg">
<path fill-rule="evenodd" clip-rule="evenodd" d="M23.9899 0.121684C24.1076 0.194475 24.2047 0.296121 24.2721 0.416984C24.3395 0.537848 24.3749 0.673923 24.375 0.812309V25.1873C24.375 25.4028 24.2894 25.6095 24.137 25.7618C23.9847 25.9142 23.778 25.9998 23.5625 25.9998H18.6875C18.472 25.9998 18.2653 25.9142 18.113 25.7618C17.9606 25.6095 17.875 25.4028 17.875 25.1873V22.7498H16.25V25.1873C16.25 25.4028 16.1644 25.6095 16.012 25.7618C15.8597 25.9142 15.653 25.9998 15.4375 25.9998H0.8125C0.597012 25.9998 0.390349 25.9142 0.237976 25.7618C0.0856024 25.6095 0 25.4028 0 25.1873V16.2498C0.000129426 16.0794 0.0538657 15.9133 0.153603 15.775C0.25334 15.6368 0.394027 15.5334 0.55575 15.4796L9.75 12.4148V7.31231C9.75001 7.16154 9.79196 7.01375 9.87117 6.88547C9.95037 6.75719 10.0637 6.65348 10.1985 6.58593L23.1985 0.0859339C23.3225 0.0238684 23.4603 -0.00542978 23.5988 0.000827905C23.7374 0.00708559 23.872 0.048691 23.9899 0.121684V0.121684ZM9.75 14.1276L1.625 16.8348V24.3748H9.75V14.1276ZM11.375 24.3748H14.625V21.9373C14.625 21.7218 14.7106 21.5152 14.863 21.3628C15.0153 21.2104 15.222 21.1248 15.4375 21.1248H18.6875C18.903 21.1248 19.1097 21.2104 19.262 21.3628C19.4144 21.5152 19.5 21.7218 19.5 21.9373V24.3748H22.75V2.12693L11.375 7.81443V24.3748Z" fill="#3D3D3D"/>
<path d="M3.25 17.875H4.875V19.5H3.25V17.875ZM6.5 17.875H8.125V19.5H6.5V17.875ZM3.25 21.125H4.875V22.75H3.25V21.125ZM6.5 21.125H8.125V22.75H6.5V21.125ZM13 14.625H14.625V16.25H13V14.625ZM16.25 14.625H17.875V16.25H16.25V14.625ZM13 17.875H14.625V19.5H13V17.875ZM16.25 17.875H17.875V19.5H16.25V17.875ZM19.5 14.625H21.125V16.25H19.5V14.625ZM19.5 17.875H21.125V19.5H19.5V17.875ZM13 11.375H14.625V13H13V11.375ZM16.25 11.375H17.875V13H16.25V11.375ZM19.5 11.375H21.125V13H19.5V11.375ZM13 8.125H14.625V9.75H13V8.125ZM16.25 8.125H17.875V9.75H16.25V8.125ZM19.5 8.125H21.125V9.75H19.5V8.125ZM19.5 4.875H21.125V6.5H19.5V4.875Z" fill="#3D3D3D"/>
</svg>
