<svg width="12" height="8" viewBox="0 0 12 8" fill="none" xmlns="http://www.w3.org/2000/svg">
    <path d="M5.04535 7.39977L0.249351 1.91777C-0.316649 1.27277 0.143351 0.259766 1.00235 0.259766H10.5944C10.7866 0.259601 10.9748 0.314853 11.1365 0.418907C11.2981 0.52296 11.4263 0.671403 11.5058 0.846459C11.5853 1.02151 11.6126 1.21576 11.5845 1.40594C11.5564 1.59612 11.474 1.77417 11.3474 1.91877L6.55135 7.39877C6.45749 7.50618 6.34174 7.59226 6.21186 7.65125C6.08198 7.71023 5.94099 7.74075 5.79835 7.74075C5.65571 7.74075 5.51472 7.71023 5.38484 7.65125C5.25497 7.59226 5.13921 7.50618 5.04535 7.39877V7.39977Z" fill="#3D3D3D"/>
</svg>