<svg width="17" height="16" viewBox="0 0 17 16" fill="none" xmlns="http://www.w3.org/2000/svg">
    <g clip-path="url(#clip0_227_215)">
        <path d="M8.59521 15C6.7387 15 4.95822 14.2625 3.64547 12.9497C2.33271 11.637 1.59521 9.85652 1.59521 8C1.59521 6.14348 2.33271 4.36301 3.64547 3.05025C4.95822 1.7375 6.7387 1 8.59521 1C10.4517 1 12.2322 1.7375 13.545 3.05025C14.8577 4.36301 15.5952 6.14348 15.5952 8C15.5952 9.85652 14.8577 11.637 13.545 12.9497C12.2322 14.2625 10.4517 15 8.59521 15ZM8.59521 16C10.7169 16 12.7518 15.1571 14.2521 13.6569C15.7524 12.1566 16.5952 10.1217 16.5952 8C16.5952 5.87827 15.7524 3.84344 14.2521 2.34315C12.7518 0.842855 10.7169 0 8.59521 0C6.47348 0 4.43865 0.842855 2.93836 2.34315C1.43807 3.84344 0.595215 5.87827 0.595215 8C0.595215 10.1217 1.43807 12.1566 2.93836 13.6569C4.43865 15.1571 6.47348 16 8.59521 16Z" fill="black"/>
    </g>
    <defs>
        <clipPath id="clip0_227_215">
            <rect width="16" height="16" fill="white" transform="translate(0.595215)"/>
        </clipPath>
    </defs>
</svg>