<svg width="17" height="16" viewBox="0 0 17 16" fill="none" xmlns="http://www.w3.org/2000/svg">
    <g clip-path="url(#clip0_227_220)">
        <path d="M8.59521 15C6.7387 15 4.95822 14.2625 3.64547 12.9497C2.33271 11.637 1.59521 9.85652 1.59521 8C1.59521 6.14348 2.33271 4.36301 3.64547 3.05025C4.95822 1.7375 6.7387 1 8.59521 1C10.4517 1 12.2322 1.7375 13.545 3.05025C14.8577 4.36301 15.5952 6.14348 15.5952 8C15.5952 9.85652 14.8577 11.637 13.545 12.9497C12.2322 14.2625 10.4517 15 8.59521 15ZM8.59521 16C10.7169 16 12.7518 15.1571 14.2521 13.6569C15.7524 12.1566 16.5952 10.1217 16.5952 8C16.5952 5.87827 15.7524 3.84344 14.2521 2.34315C12.7518 0.842855 10.7169 0 8.59521 0C6.47348 0 4.43865 0.842855 2.93836 2.34315C1.43807 3.84344 0.595215 5.87827 0.595215 8C0.595215 10.1217 1.43807 12.1566 2.93836 13.6569C4.43865 15.1571 6.47348 16 8.59521 16Z" fill="#3D3D3D"/>
        <path d="M11.5653 4.96979C11.5582 4.9767 11.5515 4.98404 11.5453 4.99179L8.07231 9.41679L5.97931 7.32279C5.83713 7.19031 5.64909 7.11819 5.45479 7.12162C5.26049 7.12505 5.0751 7.20376 4.93769 7.34117C4.80027 7.47858 4.72156 7.66397 4.71813 7.85827C4.71471 8.05257 4.78683 8.24062 4.91931 8.38279L7.56531 11.0298C7.63659 11.1009 7.72147 11.157 7.81489 11.1946C7.90831 11.2323 8.00836 11.2507 8.10906 11.2488C8.20975 11.247 8.30904 11.2249 8.40101 11.1838C8.49297 11.1427 8.57571 11.0835 8.64431 11.0098L12.6363 6.01979C12.7722 5.87712 12.8466 5.68669 12.8432 5.48966C12.8398 5.29263 12.7591 5.10484 12.6184 4.96689C12.4777 4.82893 12.2883 4.7519 12.0912 4.75244C11.8942 4.75299 11.7053 4.83106 11.5653 4.96979Z" fill="#3D3D3D"/>
    </g>
    <defs>
        <clipPath id="clip0_227_220">
            <rect width="16" height="16" fill="white" transform="translate(0.595215)"/>
        </clipPath>
    </defs>
</svg>