<svg width="21" height="21" viewBox="0 0 21 21" fill="none" xmlns="http://www.w3.org/2000/svg">
<g clip-path="url(#clip0_229_85)">
<path fill-rule="evenodd" clip-rule="evenodd" d="M0 0H1.3125V19.6875H21V21H0V0ZM19.4473 4.08581C19.5141 4.14042 19.5694 4.20765 19.6101 4.28366C19.6509 4.35967 19.6762 4.44296 19.6848 4.52877C19.6933 4.61458 19.6848 4.70124 19.6598 4.78378C19.6349 4.86632 19.5939 4.94313 19.5392 5.00981L13.6329 12.2286C13.5749 12.2994 13.5026 12.3573 13.4209 12.3986C13.3391 12.4398 13.2496 12.4635 13.1581 12.4681C13.0666 12.4727 12.9752 12.458 12.8897 12.4252C12.8042 12.3923 12.7265 12.3418 12.6617 12.2771L9.26625 8.88169L4.46775 15.4796C4.36278 15.6131 4.21016 15.7007 4.04195 15.724C3.87375 15.7473 3.70306 15.7045 3.56576 15.6046C3.42846 15.5047 3.33524 15.3554 3.30568 15.1882C3.27612 15.021 3.31252 14.8488 3.40725 14.7079L8.65725 7.48912C8.71297 7.41236 8.78468 7.34859 8.86742 7.30221C8.95016 7.25582 9.04198 7.22793 9.13654 7.22044C9.2311 7.21296 9.32616 7.22606 9.41517 7.25885C9.50417 7.29164 9.58502 7.34334 9.65213 7.41037L13.0764 10.836L18.5233 4.17769C18.5779 4.11095 18.6452 4.05562 18.7212 4.01488C18.7972 3.97414 18.8805 3.94878 18.9663 3.94024C19.0521 3.93171 19.1387 3.94018 19.2213 3.96515C19.3038 3.99013 19.3806 4.03113 19.4473 4.08581V4.08581Z" fill="#3D3D3D"/>
</g>
<defs>
<clipPath id="clip0_229_85">
<rect width="21" height="21" fill="white"/>
</clipPath>
</defs>
</svg>
