<svg width="35" height="30" viewBox="0 0 35 30" fill="none" xmlns="http://www.w3.org/2000/svg">
    <path fill-rule="evenodd" clip-rule="evenodd" d="M17.5 2.93246L31.1077 16.5401V26.0814C31.1077 26.9836 30.7493 27.8489 30.1113 28.4869C29.4733 29.1249 28.608 29.4833 27.7058 29.4833H7.29425C6.39201 29.4833 5.52672 29.1249 4.88873 28.4869C4.25075 27.8489 3.89233 26.9836 3.89233 26.0814V16.5401L17.5 2.93246ZM28.8397 1.13397V9.07179L24.3039 4.53589V1.13397C24.3039 0.833225 24.4233 0.544795 24.636 0.332133C24.8486 0.119472 25.1371 0 25.4378 0H27.7058C28.0065 0 28.295 0.119472 28.5076 0.332133C28.7203 0.544795 28.8397 0.833225 28.8397 1.13397Z" fill="#3D3D3D"/>
    <path fill-rule="evenodd" clip-rule="evenodd" d="M15.8966 1.42867C16.3219 1.0035 16.8987 0.764648 17.5 0.764648C18.1014 0.764648 18.6782 1.0035 19.1035 1.42867L34.1785 16.5014C34.3915 16.7144 34.5111 17.0032 34.5111 17.3043C34.5111 17.6054 34.3915 17.8942 34.1785 18.1072C33.9656 18.3201 33.6768 18.4397 33.3757 18.4397C33.0745 18.4397 32.7858 18.3201 32.5728 18.1072L17.5 3.03211L2.42727 18.1072C2.21434 18.3201 1.92555 18.4397 1.62442 18.4397C1.32329 18.4397 1.0345 18.3201 0.821566 18.1072C0.608637 17.8942 0.489014 17.6054 0.489014 17.3043C0.489014 17.0032 0.608637 16.7144 0.821566 16.5014L15.8966 1.42867Z" fill="#3D3D3D"/>
</svg>