<svg width="23" height="22" viewBox="0 0 23 22" fill="none" xmlns="http://www.w3.org/2000/svg">
    <path d="M2.33333 22C2.33333 22 0.5 22 0.5 20.1667C0.5 18.3333 2.33333 12.8333 11.5 12.8333C20.6667 12.8333 22.5 18.3333 22.5 20.1667C22.5 22 20.6667 22 20.6667 22H2.33333ZM11.5 11C12.9587 11 14.3576 10.4205 15.3891 9.38909C16.4205 8.35764 17 6.95869 17 5.5C17 4.04131 16.4205 2.64236 15.3891 1.61091C14.3576 0.579463 12.9587 0 11.5 0C10.0413 0 8.64236 0.579463 7.61091 1.61091C6.57946 2.64236 6 4.04131 6 5.5C6 6.95869 6.57946 8.35764 7.61091 9.38909C8.64236 10.4205 10.0413 11 11.5 11Z" fill="#3D3D3D"/>
</svg>