<svg width="31" height="31" viewBox="0 0 31 31" fill="none" xmlns="http://www.w3.org/2000/svg">
<path d="M1.9375 27.125C1.9375 27.125 0 27.125 0 25.1875C0 23.25 1.9375 17.4375 11.625 17.4375C21.3125 17.4375 23.25 23.25 23.25 25.1875C23.25 27.125 21.3125 27.125 21.3125 27.125H1.9375ZM11.625 15.5C13.1666 15.5 14.645 14.8876 15.7351 13.7976C16.8251 12.7075 17.4375 11.2291 17.4375 9.6875C17.4375 8.14593 16.8251 6.6675 15.7351 5.57744C14.645 4.48739 13.1666 3.875 11.625 3.875C10.0834 3.875 8.605 4.48739 7.51494 5.57744C6.42489 6.6675 5.8125 8.14593 5.8125 9.6875C5.8125 11.2291 6.42489 12.7075 7.51494 13.7976C8.605 14.8876 10.0834 15.5 11.625 15.5V15.5Z" fill="#3D3D3D"/>
<path fill-rule="evenodd" clip-rule="evenodd" d="M26.1562 9.6875C26.4132 9.6875 26.6596 9.78956 26.8413 9.97124C27.0229 10.1529 27.125 10.3993 27.125 10.6562V13.5625H30.0312C30.2882 13.5625 30.5346 13.6646 30.7163 13.8462C30.8979 14.0279 31 14.2743 31 14.5312C31 14.7882 30.8979 15.0346 30.7163 15.2163C30.5346 15.3979 30.2882 15.5 30.0312 15.5H27.125V18.4062C27.125 18.6632 27.0229 18.9096 26.8413 19.0913C26.6596 19.2729 26.4132 19.375 26.1562 19.375C25.8993 19.375 25.6529 19.2729 25.4712 19.0913C25.2896 18.9096 25.1875 18.6632 25.1875 18.4062V15.5H22.2812C22.0243 15.5 21.7779 15.3979 21.5962 15.2163C21.4146 15.0346 21.3125 14.7882 21.3125 14.5312C21.3125 14.2743 21.4146 14.0279 21.5962 13.8462C21.7779 13.6646 22.0243 13.5625 22.2812 13.5625H25.1875V10.6562C25.1875 10.3993 25.2896 10.1529 25.4712 9.97124C25.6529 9.78956 25.8993 9.6875 26.1562 9.6875Z" fill="#3D3D3D"/>
</svg>