<svg width="33" height="32" viewBox="0 0 33 32" fill="none" xmlns="http://www.w3.org/2000/svg">
    <g clip-path="url(#clip0_203_1461)">
        <path d="M7.17568 5.11766C7.27031 4.69679 7.52825 4.33074 7.89276 4.10005C8.25727 3.86936 8.6985 3.79292 9.11937 3.88755L28.1621 8.16902C28.583 8.26365 28.949 8.52159 29.1797 8.8861C29.4104 9.25061 29.4869 9.69184 29.3922 10.1127L7.17568 5.11766ZM15.4296 20.3104C16.2714 20.4996 17.1538 20.3467 17.8829 19.8854C18.6119 19.424 19.1278 18.6919 19.317 17.8501C19.5063 17.0084 19.3534 16.126 18.892 15.3969C18.4306 14.6679 17.6985 14.152 16.8568 13.9628C16.0151 13.7735 15.1326 13.9264 14.4036 14.3878C13.6746 14.8492 13.1587 15.5812 12.9694 16.423C12.7802 17.2647 12.9331 18.1472 13.3944 18.8762C13.8558 19.6052 14.5879 20.1211 15.4296 20.3104Z" fill="black"/>
        <path d="M4.87514 7.93455C4.96977 7.51368 5.22771 7.14764 5.59222 6.91695C5.95674 6.68626 6.39796 6.60982 6.81883 6.70445L29.0354 11.6995C29.4563 11.7941 29.8223 12.0521 30.053 12.4166C30.2837 12.7811 30.3601 13.2223 30.2655 13.6432L27.4112 26.3384C27.3166 26.7592 27.0586 27.1253 26.6941 27.356C26.3296 27.5867 25.8884 27.6631 25.4675 27.5685L3.25094 22.5734C2.83007 22.4788 2.46402 22.2209 2.23334 21.8563C2.00265 21.4918 1.92621 21.0506 2.02083 20.6297L4.87514 7.93455ZM9.63584 9.00492C9.44658 9.84666 8.9307 10.5788 8.20168 11.0401C7.47265 11.5015 6.59021 11.6544 5.74846 11.4651L4.32131 17.8127C5.16305 18.002 5.89514 18.5179 6.35652 19.2469C6.8179 19.9759 6.97078 20.8584 6.78152 21.7001L22.6505 25.268C22.8397 24.4262 23.3556 23.6942 24.0847 23.2328C24.8137 22.7714 25.6961 22.6185 26.5379 22.8078L27.965 16.4602C27.1233 16.2709 26.3912 15.755 25.9298 15.026C25.4684 14.297 25.3156 13.4146 25.5048 12.5728L9.63584 9.00492Z" fill="black"/>
    </g>
    <defs>
        <clipPath id="clip0_203_1461">
            <rect width="26.0242" height="26.0242" fill="white" transform="translate(6.65918) rotate(12.6714)"/>
        </clipPath>
    </defs>
</svg>