<svg width="54" height="15" viewBox="0 0 54 15" fill="none" xmlns="http://www.w3.org/2000/svg">
    <g clip-path="url(#clip0_221_252)">
        <path d="M15.0585 0.290124C14.7291 0.377141 14.0332 0.534599 13.5144 0.63819C12.1926 0.89924 11.9826 0.977969 11.3938 1.4172C10.5579 2.04289 9.9732 3.25283 9.97732 4.3509C9.98144 4.76941 10.0432 5.06775 10.1132 4.98902C10.1297 4.9683 10.1873 4.84813 10.2367 4.72383C10.4879 4.11471 11.2167 3.18653 11.8385 2.68515C12.1556 2.42825 12.7938 2.17548 12.7938 2.30808C12.7938 2.35366 12.5756 2.62714 12.3161 2.90062C12.0732 3.16167 11.9908 3.26941 11.5338 3.93653C11.0603 4.63681 10.4426 5.88819 10.0267 7.00283C9.6232 8.08432 9.32673 8.9462 9.12908 9.59261C8.79556 10.699 8.49497 11.5733 8.44144 11.5898C8.37556 11.6147 8.19438 11.0222 7.81556 9.55117C7.22673 7.24731 6.97555 6.45587 6.37438 5.01388C5.96261 4.03184 5.41909 3.24454 4.31556 2.03874C3.71026 1.37162 2.84967 0.733495 2.33085 0.559462C1.9932 0.443439 1.96438 0.501451 2.21967 0.787362C3.42203 2.15062 4.11791 3.16167 4.85497 4.59952C5.47673 5.82189 5.90497 7.03598 6.6832 9.82051C6.88085 10.5332 7.31732 12.3481 7.45732 13.0526C7.61379 13.8357 7.78673 14.6023 7.83203 14.7224C7.8485 14.7597 7.91026 14.8095 7.97203 14.826C8.11203 14.8633 8.78732 14.8633 8.93144 14.826C9.14556 14.7639 9.18673 14.594 9.4832 12.6382C9.68085 11.3164 9.84967 10.5249 10.1873 9.34399C10.7597 7.33018 11.3691 5.85504 11.7397 5.61471C11.7932 5.58156 12.0567 5.51526 12.3326 5.46968C13.4032 5.2915 14.2638 4.81499 14.8732 4.0567C15.2808 3.55117 15.3879 3.17825 15.4908 1.93515C15.5444 1.27631 15.5773 1.08985 15.7008 0.696201C15.7791 0.439296 15.8326 0.207252 15.8244 0.178246C15.7956 0.10366 15.7297 0.111947 15.0585 0.290124Z" fill="#017F00"/>
    </g>
    <path d="M21.6951 11.5L19.1431 3.822H20.1331L21.3981 7.694L22.2451 10.576H22.3001L23.1691 7.694L24.4451 3.822H25.4021L22.8171 11.5H21.6951ZM28.3622 11.632C27.9735 11.632 27.6215 11.5623 27.3062 11.423C26.9982 11.2837 26.7305 11.0857 26.5032 10.829C26.2832 10.565 26.1109 10.2533 25.9862 9.894C25.8689 9.52733 25.8102 9.11667 25.8102 8.662C25.8102 8.21467 25.8689 7.80767 25.9862 7.441C26.1109 7.07433 26.2832 6.76267 26.5032 6.506C26.7305 6.242 26.9982 6.04033 27.3062 5.901C27.6215 5.76167 27.9735 5.692 28.3622 5.692C28.7435 5.692 29.0845 5.76167 29.3852 5.901C29.6859 6.04033 29.9425 6.23467 30.1552 6.484C30.3679 6.726 30.5292 7.01567 30.6392 7.353C30.7565 7.69033 30.8152 8.06067 30.8152 8.464V8.882H26.7342V9.146C26.7342 9.388 26.7709 9.61533 26.8442 9.828C26.9249 10.0333 27.0349 10.213 27.1742 10.367C27.3209 10.521 27.4969 10.642 27.7022 10.73C27.9149 10.818 28.1532 10.862 28.4172 10.862C28.7765 10.862 29.0882 10.7777 29.3522 10.609C29.6235 10.4403 29.8325 10.1983 29.9792 9.883L30.6062 10.334C30.4229 10.7227 30.1369 11.038 29.7482 11.28C29.3595 11.5147 28.8975 11.632 28.3622 11.632ZM28.3622 6.429C28.1202 6.429 27.9002 6.473 27.7022 6.561C27.5042 6.64167 27.3319 6.759 27.1852 6.913C27.0459 7.067 26.9359 7.25033 26.8552 7.463C26.7745 7.66833 26.7342 7.89567 26.7342 8.145V8.222H29.8692V8.101C29.8692 7.595 29.7299 7.19167 29.4512 6.891C29.1799 6.583 28.8169 6.429 28.3622 6.429ZM37.0503 12.127C37.0503 12.7137 36.8193 13.1427 36.3573 13.414C35.9027 13.6927 35.217 13.832 34.3003 13.832C33.413 13.832 32.775 13.711 32.3863 13.469C31.9977 13.227 31.8033 12.8823 31.8033 12.435C31.8033 12.127 31.884 11.885 32.0453 11.709C32.2067 11.5403 32.4267 11.4157 32.7053 11.335V11.214C32.368 11.0527 32.1993 10.7887 32.1993 10.422C32.1993 10.136 32.291 9.91967 32.4743 9.773C32.6577 9.619 32.8923 9.50533 33.1783 9.432V9.388C32.841 9.22667 32.577 8.99567 32.3863 8.695C32.203 8.39433 32.1113 8.046 32.1113 7.65C32.1113 7.364 32.1627 7.1 32.2653 6.858C32.368 6.616 32.511 6.41067 32.6943 6.242C32.885 6.066 33.1087 5.93033 33.3653 5.835C33.6293 5.73967 33.9227 5.692 34.2453 5.692C34.6487 5.692 35.008 5.76533 35.3233 5.912V5.813C35.3233 5.593 35.3747 5.41333 35.4773 5.274C35.58 5.12733 35.7487 5.054 35.9833 5.054H36.8303V5.824H35.7523V6.187C35.9577 6.363 36.1153 6.57567 36.2253 6.825C36.3427 7.067 36.4013 7.342 36.4013 7.65C36.4013 7.936 36.35 8.2 36.2473 8.442C36.1447 8.684 35.998 8.893 35.8073 9.069C35.624 9.23767 35.4003 9.36967 35.1363 9.465C34.8723 9.56033 34.579 9.608 34.2563 9.608C34.073 9.608 33.8897 9.58967 33.7063 9.553C33.5157 9.60433 33.3433 9.68133 33.1893 9.784C33.0353 9.87933 32.9583 10.015 32.9583 10.191C32.9583 10.3597 33.039 10.4733 33.2003 10.532C33.3617 10.5907 33.5707 10.62 33.8273 10.62H35.0373C35.7413 10.62 36.251 10.7557 36.5663 11.027C36.889 11.291 37.0503 11.6577 37.0503 12.127ZM36.2253 12.193C36.2253 11.9657 36.1373 11.7823 35.9613 11.643C35.7927 11.511 35.4883 11.445 35.0483 11.445H33.1563C32.8043 11.6063 32.6283 11.863 32.6283 12.215C32.6283 12.4643 32.72 12.677 32.9033 12.853C33.094 13.029 33.413 13.117 33.8603 13.117H34.6743C35.1657 13.117 35.547 13.04 35.8183 12.886C36.0897 12.732 36.2253 12.501 36.2253 12.193ZM34.2563 8.904C34.6303 8.904 34.9273 8.816 35.1473 8.64C35.3673 8.45667 35.4773 8.178 35.4773 7.804V7.496C35.4773 7.122 35.3673 6.847 35.1473 6.671C34.9273 6.48767 34.6303 6.396 34.2563 6.396C33.8823 6.396 33.5853 6.48767 33.3653 6.671C33.1453 6.847 33.0353 7.122 33.0353 7.496V7.804C33.0353 8.178 33.1453 8.45667 33.3653 8.64C33.5853 8.816 33.8823 8.904 34.2563 8.904ZM42.8833 12.127C42.8833 12.7137 42.6523 13.1427 42.1903 13.414C41.7357 13.6927 41.05 13.832 40.1333 13.832C39.246 13.832 38.608 13.711 38.2193 13.469C37.8307 13.227 37.6363 12.8823 37.6363 12.435C37.6363 12.127 37.717 11.885 37.8783 11.709C38.0397 11.5403 38.2597 11.4157 38.5383 11.335V11.214C38.201 11.0527 38.0323 10.7887 38.0323 10.422C38.0323 10.136 38.124 9.91967 38.3073 9.773C38.4907 9.619 38.7253 9.50533 39.0113 9.432V9.388C38.674 9.22667 38.41 8.99567 38.2193 8.695C38.036 8.39433 37.9443 8.046 37.9443 7.65C37.9443 7.364 37.9957 7.1 38.0983 6.858C38.201 6.616 38.344 6.41067 38.5273 6.242C38.718 6.066 38.9417 5.93033 39.1983 5.835C39.4623 5.73967 39.7557 5.692 40.0783 5.692C40.4817 5.692 40.841 5.76533 41.1563 5.912V5.813C41.1563 5.593 41.2077 5.41333 41.3103 5.274C41.413 5.12733 41.5817 5.054 41.8163 5.054H42.6633V5.824H41.5853V6.187C41.7907 6.363 41.9483 6.57567 42.0583 6.825C42.1757 7.067 42.2343 7.342 42.2343 7.65C42.2343 7.936 42.183 8.2 42.0803 8.442C41.9777 8.684 41.831 8.893 41.6403 9.069C41.457 9.23767 41.2333 9.36967 40.9693 9.465C40.7053 9.56033 40.412 9.608 40.0893 9.608C39.906 9.608 39.7227 9.58967 39.5393 9.553C39.3487 9.60433 39.1763 9.68133 39.0223 9.784C38.8683 9.87933 38.7913 10.015 38.7913 10.191C38.7913 10.3597 38.872 10.4733 39.0333 10.532C39.1947 10.5907 39.4037 10.62 39.6603 10.62H40.8703C41.5743 10.62 42.084 10.7557 42.3993 11.027C42.722 11.291 42.8833 11.6577 42.8833 12.127ZM42.0583 12.193C42.0583 11.9657 41.9703 11.7823 41.7943 11.643C41.6257 11.511 41.3213 11.445 40.8813 11.445H38.9893C38.6373 11.6063 38.4613 11.863 38.4613 12.215C38.4613 12.4643 38.553 12.677 38.7363 12.853C38.927 13.029 39.246 13.117 39.6933 13.117H40.5073C40.9987 13.117 41.38 13.04 41.6513 12.886C41.9227 12.732 42.0583 12.501 42.0583 12.193ZM40.0893 8.904C40.4633 8.904 40.7603 8.816 40.9803 8.64C41.2003 8.45667 41.3103 8.178 41.3103 7.804V7.496C41.3103 7.122 41.2003 6.847 40.9803 6.671C40.7603 6.48767 40.4633 6.396 40.0893 6.396C39.7153 6.396 39.4183 6.48767 39.1983 6.671C38.9783 6.847 38.8683 7.122 38.8683 7.496V7.804C38.8683 8.178 38.9783 8.45667 39.1983 8.64C39.4183 8.816 39.7153 8.904 40.0893 8.904ZM44.3499 4.493C44.1592 4.493 44.0199 4.449 43.9319 4.361C43.8512 4.26567 43.8109 4.14467 43.8109 3.998V3.855C43.8109 3.70833 43.8512 3.591 43.9319 3.503C44.0199 3.40767 44.1592 3.36 44.3499 3.36C44.5405 3.36 44.6762 3.40767 44.7569 3.503C44.8449 3.591 44.8889 3.70833 44.8889 3.855V3.998C44.8889 4.14467 44.8449 4.26567 44.7569 4.361C44.6762 4.449 44.5405 4.493 44.3499 4.493ZM43.9099 5.824H44.7899V11.5H43.9099V5.824ZM48.7939 11.632C48.4052 11.632 48.0532 11.5623 47.7379 11.423C47.4299 11.2837 47.1622 11.0857 46.9349 10.829C46.7149 10.565 46.5425 10.2533 46.4179 9.894C46.3005 9.52733 46.2419 9.11667 46.2419 8.662C46.2419 8.21467 46.3005 7.80767 46.4179 7.441C46.5425 7.07433 46.7149 6.76267 46.9349 6.506C47.1622 6.242 47.4299 6.04033 47.7379 5.901C48.0532 5.76167 48.4052 5.692 48.7939 5.692C49.1752 5.692 49.5162 5.76167 49.8169 5.901C50.1175 6.04033 50.3742 6.23467 50.5869 6.484C50.7995 6.726 50.9609 7.01567 51.0709 7.353C51.1882 7.69033 51.2469 8.06067 51.2469 8.464V8.882H47.1659V9.146C47.1659 9.388 47.2025 9.61533 47.2759 9.828C47.3565 10.0333 47.4665 10.213 47.6059 10.367C47.7525 10.521 47.9285 10.642 48.1339 10.73C48.3465 10.818 48.5849 10.862 48.8489 10.862C49.2082 10.862 49.5199 10.7777 49.7839 10.609C50.0552 10.4403 50.2642 10.1983 50.4109 9.883L51.0379 10.334C50.8545 10.7227 50.5685 11.038 50.1799 11.28C49.7912 11.5147 49.3292 11.632 48.7939 11.632ZM48.7939 6.429C48.5519 6.429 48.3319 6.473 48.1339 6.561C47.9359 6.64167 47.7635 6.759 47.6169 6.913C47.4775 7.067 47.3675 7.25033 47.2869 7.463C47.2062 7.66833 47.1659 7.89567 47.1659 8.145V8.222H50.3009V8.101C50.3009 7.595 50.1615 7.19167 49.8829 6.891C49.6115 6.583 49.2485 6.429 48.7939 6.429Z" fill="#017F00"/>
    <defs>
        <clipPath id="clip0_221_252">
            <rect width="14" height="15" fill="white" transform="translate(1.9231)"/>
        </clipPath>
    </defs>
</svg>